<svg xmlns="http://www.w3.org/2000/svg" xmlns:xlink="http://www.w3.org/1999/xlink" width="1000" zoomAndPan="magnify" viewBox="0 0 750 374.999991" height="500" preserveAspectRatio="xMidYMid meet" version="1.0"><defs><clipPath id="8204ce573a"><path d="M 54.683594 73.339844 L 164 73.339844 L 164 278 L 54.683594 278 Z M 54.683594 73.339844 " clip-rule="nonzero"/></clipPath><clipPath id="7b6e4b4abc"><path d="M 305 73.339844 L 413.933594 73.339844 L 413.933594 279 L 305 279 Z M 305 73.339844 " clip-rule="nonzero"/></clipPath><clipPath id="807264e187"><path d="M 267 173 L 344 173 L 344 301.339844 L 267 301.339844 Z M 267 173 " clip-rule="nonzero"/></clipPath><clipPath id="40feda37f9"><path d="M 196 73.339844 L 273 73.339844 L 273 202 L 196 202 Z M 196 73.339844 " clip-rule="nonzero"/></clipPath><clipPath id="af090e6e3a"><path d="M 125 173 L 202 173 L 202 301.339844 L 125 301.339844 Z M 125 173 " clip-rule="nonzero"/></clipPath><clipPath id="7a24a5568e"><path d="M 655 113 L 686.96875 113 L 686.96875 219 L 655 219 Z M 655 113 " clip-rule="nonzero"/></clipPath><clipPath id="4e12a283e6"><path d="M 647 226 L 684 226 L 684 262.5 L 647 262.5 Z M 647 226 " clip-rule="nonzero"/></clipPath></defs><g clip-path="url(#8204ce573a)"><path fill="#b996fd" d="M 129.105469 247.382812 C 126.824219 252.253906 125.546875 257.675781 125.546875 263.40625 C 125.546875 268.34375 126.488281 273.054688 128.203125 277.375 L 60.464844 131.183594 C 58.882812 128.628906 57.601562 125.875 56.660156 122.972656 C 55.453125 119.292969 54.808594 115.363281 54.808594 111.28125 C 54.816406 90.324219 71.839844 73.339844 92.84375 73.339844 C 107.574219 73.339844 120.359375 81.703125 126.664062 93.914062 L 126.664062 93.925781 C 127.128906 94.820312 127.5625 95.738281 127.949219 96.667969 L 163.570312 173.117188 Z M 129.105469 247.382812 " fill-opacity="1" fill-rule="nonzero"/></g><g clip-path="url(#7b6e4b4abc)"><path fill="#fd71ba" d="M 413.800781 111.28125 C 413.800781 116.703125 412.65625 121.871094 410.597656 126.53125 C 410.390625 127.015625 410.15625 127.492188 409.925781 127.96875 L 339.773438 278.863281 C 341.890625 274.152344 343.0625 268.917969 343.0625 263.40625 C 343.0625 257.128906 341.53125 251.195312 338.824219 245.976562 L 305.039062 173.117188 L 340.121094 98.046875 C 345.511719 83.609375 359.429688 73.339844 375.773438 73.339844 C 396.777344 73.339844 413.800781 90.324219 413.800781 111.277344 Z M 413.800781 111.28125 " fill-opacity="1" fill-rule="nonzero"/></g><g clip-path="url(#807264e187)"><path fill="#6c65c2" d="M 343.070312 263.40625 C 343.070312 268.910156 341.898438 274.136719 339.785156 278.855469 L 339.765625 278.894531 L 339.40625 279.667969 C 333.300781 292.480469 320.210938 301.332031 305.046875 301.332031 C 289.878906 301.332031 276.789062 292.472656 270.683594 279.667969 L 270.320312 278.878906 L 270.320312 278.863281 C 268.199219 274.144531 267.019531 268.910156 267.019531 263.398438 C 267.019531 257.101562 268.558594 251.160156 271.28125 245.933594 L 305.046875 173.109375 L 338.832031 245.96875 C 341.539062 251.1875 343.078125 257.117188 343.078125 263.398438 Z M 343.070312 263.40625 " fill-opacity="1" fill-rule="nonzero"/></g><g clip-path="url(#40feda37f9)"><path fill="#6c65c2" d="M 270.035156 98.246094 L 270.035156 98.230469 C 269.296875 96.222656 268.386719 94.292969 267.332031 92.453125 L 267.3125 92.410156 C 260.75 81.015625 248.4375 73.339844 234.316406 73.339844 C 220.195312 73.339844 206.804688 81.703125 200.492188 93.921875 C 200.03125 94.820312 199.605469 95.738281 199.214844 96.667969 C 197.328125 101.164062 196.289062 106.101562 196.289062 111.277344 C 196.289062 117.558594 197.820312 123.484375 200.535156 128.707031 L 234.316406 201.566406 L 268.117188 128.675781 C 270.820312 123.464844 272.347656 117.550781 272.347656 111.277344 C 272.347656 106.695312 271.535156 102.304688 270.042969 98.246094 Z M 270.035156 98.246094 " fill-opacity="1" fill-rule="nonzero"/></g><g clip-path="url(#af090e6e3a)"><path fill="#bc41b7" d="M 198.050781 247.382812 L 163.570312 173.117188 L 129.097656 247.382812 C 126.824219 252.253906 125.546875 257.679688 125.546875 263.40625 C 125.546875 268.335938 126.488281 273.046875 128.210938 277.375 L 128.210938 277.398438 C 128.726562 278.683594 129.308594 279.929688 129.949219 281.140625 C 136.324219 293.160156 148.988281 301.347656 163.570312 301.347656 C 178.15625 301.347656 190.820312 293.160156 197.199219 281.140625 L 197.214844 281.121094 L 197.214844 281.105469 C 197.820312 279.988281 198.359375 278.832031 198.835938 277.648438 C 200.617188 273.257812 201.605469 268.449219 201.605469 263.414062 C 201.605469 257.6875 200.328125 252.261719 198.050781 247.390625 Z M 198.050781 247.382812 " fill-opacity="1" fill-rule="nonzero"/></g><path fill="#fd71ba" d="M 198.835938 277.640625 C 200.617188 273.25 201.605469 268.441406 201.605469 263.40625 C 201.605469 257.679688 200.328125 252.253906 198.050781 247.382812 L 163.570312 173.117188 L 199.199219 96.667969 C 197.3125 101.164062 196.277344 106.101562 196.277344 111.277344 C 196.277344 117.558594 197.804688 123.484375 200.523438 128.707031 L 234.300781 201.566406 L 198.828125 277.640625 Z M 198.835938 277.640625 " fill-opacity="1" fill-rule="nonzero"/><path fill="#4cc9e8" d="M 271.273438 245.941406 C 268.550781 251.167969 267.011719 257.109375 267.011719 263.40625 C 267.011719 268.917969 268.183594 274.144531 270.304688 278.871094 L 234.308594 201.574219 L 268.109375 128.683594 C 270.8125 123.472656 272.339844 117.558594 272.339844 111.28125 C 272.339844 106.703125 271.527344 102.3125 270.035156 98.253906 L 305.046875 173.125 L 271.28125 245.949219 Z M 271.273438 245.941406 " fill-opacity="1" fill-rule="nonzero"/><path fill="#fd71ba" d="M 439.171875 133.667969 C 440.445312 149.71875 444.113281 206.25 444.527344 211.464844 C 444.917969 216.425781 449.265625 220.132812 454.226562 219.742188 C 459.1875 219.347656 462.894531 215 462.503906 210.039062 C 462.089844 204.828125 458.421875 148.292969 457.148438 132.242188 C 456.757812 127.28125 452.410156 123.574219 447.449219 123.96875 C 442.488281 124.359375 438.78125 128.707031 439.171875 133.667969 Z M 439.171875 133.667969 " fill-opacity="1" fill-rule="evenodd"/><path fill="#fd71ba" d="M 456.742188 165.96875 C 453.121094 164.023438 448.503906 164.769531 445.691406 168 C 442.707031 171.429688 442.769531 174.519531 443.085938 176.441406 C 443.554688 179.324219 445.085938 181.859375 448.316406 183.457031 C 449.597656 184.09375 451.828125 184.738281 454.777344 184.570312 C 458.589844 184.351562 465.832031 182.507812 469.28125 181.882812 C 479.898438 179.953125 490.539062 179.164062 501.21875 177.832031 C 506.15625 177.214844 509.664062 172.703125 509.046875 167.765625 C 508.429688 162.828125 503.921875 159.320312 498.980469 159.9375 C 487.96875 161.3125 477 162.148438 466.054688 164.140625 C 464.148438 164.484375 459.734375 165.363281 456.742188 165.96875 Z M 456.742188 165.96875 " fill-opacity="1" fill-rule="evenodd"/><path fill="#fd71ba" d="M 491.730469 128.195312 C 494.113281 149.644531 491.675781 183.90625 491.675781 205.445312 C 491.675781 210.421875 495.714844 214.460938 500.691406 214.460938 C 505.667969 214.460938 509.707031 210.421875 509.707031 205.445312 C 509.707031 183.351562 512.097656 148.207031 509.652344 126.203125 C 509.101562 121.257812 504.640625 117.6875 499.695312 118.238281 C 494.75 118.785156 491.179688 123.246094 491.730469 128.195312 Z M 491.730469 128.195312 " fill-opacity="1" fill-rule="evenodd"/><path fill="#6c65c2" d="M 538.640625 195.429688 C 541.054688 195.695312 543.503906 195.570312 546.851562 195.066406 C 559.78125 193.117188 567.511719 186.324219 571.402344 178.511719 C 581.148438 158.941406 566.472656 131.871094 540.84375 139.0625 C 529.148438 142.34375 521.242188 152.558594 518.066406 165.28125 C 513.683594 182.847656 518.863281 204.453125 531.632812 214.035156 C 543.558594 222.976562 557.894531 223.410156 567.292969 211.667969 C 570.398438 207.78125 569.769531 202.101562 565.882812 198.992188 C 561.996094 195.886719 556.316406 196.515625 553.210938 200.402344 C 550.375 203.945312 546.054688 202.308594 542.453125 199.605469 C 540.957031 198.484375 539.6875 197.066406 538.640625 195.429688 Z M 534.597656 175.84375 C 538.464844 177.1875 540.207031 177.832031 544.164062 177.234375 C 549.835938 176.378906 553.550781 173.898438 555.257812 170.472656 C 558.578125 163.8125 554.4375 153.976562 545.714844 156.425781 C 538.328125 158.496094 535.304688 166.988281 534.625 175.464844 Z M 534.597656 175.84375 " fill-opacity="1" fill-rule="evenodd"/><path fill="#b996fd" d="M 596.386719 205.375 C 588.628906 218.542969 581.027344 231.050781 576.511719 237.371094 C 573.617188 241.421875 574.558594 247.054688 578.605469 249.949219 C 582.65625 252.84375 588.289062 251.902344 591.183594 247.855469 C 597.914062 238.4375 611.398438 215.507812 622.238281 196.792969 C 626.769531 190.546875 631.453125 182.519531 635.324219 176.21875 C 640.464844 167.863281 644.617188 160.191406 645.339844 158.34375 C 646.367188 155.714844 646.042969 153.84375 645.917969 153.132812 C 645.210938 149.125 642.777344 147.222656 640.257812 146.253906 C 638.523438 145.589844 635.4375 144.75 631.785156 147.308594 C 631.367188 147.601562 630.4375 148.292969 629.320312 149.769531 C 628.386719 151.007812 626.207031 154.316406 622.441406 160.480469 C 620.621094 163.457031 614.476562 174.246094 607.085938 187.03125 L 607.054688 187.074219 L 606.875 187.300781 C 605.769531 184.597656 604.523438 181.34375 603.621094 178.433594 C 599.859375 166.304688 596.332031 152.070312 594.199219 146.800781 C 592.335938 142.1875 587.074219 139.957031 582.460938 141.820312 C 577.847656 143.6875 575.617188 148.945312 577.480469 153.5625 C 580.613281 161.304688 586.785156 188.558594 592.324219 199.621094 C 593.539062 202.046875 594.945312 203.9375 596.386719 205.375 Z M 596.386719 205.375 " fill-opacity="1" fill-rule="evenodd"/><path fill="#b996fd" d="M 441.75 251.695312 L 442.6875 251.582031 C 453.660156 250.394531 509.273438 246.042969 533.289062 244.542969 C 538.257812 244.234375 542.035156 239.949219 541.726562 234.984375 C 541.417969 230.015625 537.132812 226.234375 532.164062 226.546875 C 507.933594 228.0625 451.8125 232.453125 440.742188 233.65625 C 438.273438 233.925781 436.847656 234.363281 436.558594 234.476562 C 432.332031 236.121094 431.433594 239.265625 431.082031 240.632812 C 429.832031 245.449219 432.730469 250.375 437.550781 251.621094 C 438.972656 251.988281 440.40625 251.996094 441.75 251.695312 Z M 441.75 251.695312 " fill-opacity="1" fill-rule="evenodd"/><g clip-path="url(#7a24a5568e)"><path fill="#fd71ba" d="M 668.410156 120.1875 C 663.648438 138.253906 662.898438 157.457031 660.46875 175.976562 C 659.046875 186.816406 656.386719 197.589844 655.300781 208.4375 C 654.808594 213.390625 658.425781 217.8125 663.375 218.308594 C 668.328125 218.800781 672.75 215.183594 673.246094 210.230469 C 674.3125 199.566406 676.953125 188.980469 678.351562 178.324219 C 680.679688 160.554688 681.277344 142.117188 685.847656 124.785156 C 687.117188 119.972656 684.238281 115.035156 679.425781 113.765625 C 674.617188 112.5 669.679688 115.375 668.410156 120.1875 Z M 668.410156 120.1875 " fill-opacity="1" fill-rule="evenodd"/></g><path fill="#b996fd" d="M 661.011719 236.070312 C 652.066406 240.253906 656.367188 256.4375 667.15625 252.367188 C 680.007812 247.523438 674.242188 231.082031 661.011719 236.070312 Z M 661.011719 236.070312 " fill-opacity="1" fill-rule="evenodd"/><g clip-path="url(#4e12a283e6)"><path fill="#6c65c2" d="M 657.832031 227.632812 C 657.613281 227.714844 657.402344 227.804688 657.191406 227.902344 C 648.296875 232.066406 645.503906 242 648.101562 250.074219 C 649.761719 255.238281 653.527344 259.414062 658.566406 261.15625 C 661.871094 262.300781 665.835938 262.5 670.335938 260.804688 C 682.738281 256.132812 685.210938 245.351562 682.339844 237.449219 C 679.449219 229.511719 670.667969 222.792969 657.832031 227.632812 Z M 657.832031 227.632812 " fill-opacity="1" fill-rule="evenodd"/></g></svg>