<?xml version="1.0" encoding="UTF-8"?>
<svg id="uuid-cf43aa17-e798-406a-a7e0-05c206b11804" data-name="Ebene 1" xmlns="http://www.w3.org/2000/svg" xmlns:xlink="http://www.w3.org/1999/xlink" viewBox="0 0 413.83266 414.76415">
  <defs>
    <style>
      .uuid-8b4b2b09-0539-4260-9d02-d69614e838cd {
        fill: #c1bcbd;
      }

      .uuid-8b4b2b09-0539-4260-9d02-d69614e838cd, .uuid-63a84239-28a5-428c-9238-0f8ba2d7b8e2, .uuid-b0ae9369-1215-4bcf-b32f-847ad39be31f, .uuid-1e9147e0-3c14-406a-ad10-46c4b18e0b54, .uuid-8ac6a568-b783-468c-ad08-c47305c86c4f, .uuid-e50f5f5e-1d0b-4912-8252-235fc38030e4, .uuid-501a239c-542a-44a7-8c2c-4f872fc5b384 {
        stroke-width: 0px;
      }

      .uuid-63a84239-28a5-428c-9238-0f8ba2d7b8e2 {
        fill: #323141;
      }

      .uuid-b0ae9369-1215-4bcf-b32f-847ad39be31f {
        fill: #ffec3d;
      }

      .uuid-1e9147e0-3c14-406a-ad10-46c4b18e0b54 {
        fill: #87cfec;
      }

      .uuid-8ac6a568-b783-468c-ad08-c47305c86c4f {
        fill: url(#uuid-af00561c-36f6-4fa4-ace2-ed519b67a829);
      }

      .uuid-e50f5f5e-1d0b-4912-8252-235fc38030e4 {
        fill: #fdfdfd;
      }

      .uuid-d0731a08-2652-4ba2-9083-3ecc6d9b3c75 {
        filter: url(#uuid-daf5aed1-6d4e-4af2-b655-b32d5e153e55);
      }

      .uuid-501a239c-542a-44a7-8c2c-4f872fc5b384 {
        fill: #fff;
      }
    </style>
    <linearGradient id="uuid-af00561c-36f6-4fa4-ace2-ed519b67a829" data-name="Unbenannter Verlauf 34" x1="206.91633" y1="0" x2="206.91633" y2="414.76415" gradientUnits="userSpaceOnUse">
      <stop offset="0" stop-color="#b3b2b2" stop-opacity=".6"/>
      <stop offset=".40464" stop-color="rgba(213, 213, 213, .46305)" stop-opacity=".46305"/>
      <stop offset="1" stop-color="#fff" stop-opacity=".3"/>
    </linearGradient>
    <filter id="uuid-daf5aed1-6d4e-4af2-b655-b32d5e153e55" data-name="drop-shadow-1" filterUnits="userSpaceOnUse">
      <feOffset dx="7" dy="7"/>
      <feGaussianBlur result="uuid-7c5a986e-e64a-4e87-b6b9-6c1c6527097a" stdDeviation="5"/>
      <feFlood flood-color="#060707" flood-opacity=".5"/>
      <feComposite in2="uuid-7c5a986e-e64a-4e87-b6b9-6c1c6527097a" operator="in"/>
      <feComposite in="SourceGraphic"/>
    </filter>
  </defs>
  <rect class="uuid-8ac6a568-b783-468c-ad08-c47305c86c4f" width="413.83266" height="414.76415" rx="100" ry="100"/>
  <g class="uuid-d0731a08-2652-4ba2-9083-3ecc6d9b3c75">
    <path class="uuid-e50f5f5e-1d0b-4912-8252-235fc38030e4" d="M222.36706,51.74338c5.49379-.83761,25.74904,5.54161,27.82808,5.48761,2.2431-.05825,6.3753-3.53443,8.83452-4.11523,12.61251-2.97893,15.46957,5.1768,16.34348,5.48761,2.42729.86291,25.72296-1.82775,45.27679,21.26514,16.45365,19.43303,14.32153,37.72531,15.01793,39.78733.1539.45718,5.1095,3.51094,5.96319,4.34514,38.56083,37.6678,21.38307,101.58158-7.73022,139.71182-13.14238,17.21518-21.13338,17.81511-21.64384,19.20838-1.28007,3.49005,1.78643,65.50471-.88315,74.54333-1.67288,5.66087-8.24315,11.38094-13.91445,12.57655H89.40977c-7.52837-1.21559-14.59997-7.79863-15.68158-15.77753-1.7006-12.54956,1.62575-81.86474.44158-102.44109,3.60058-5.48064,21.54118-22.38757,22.97011-26.06746.96057-2.47557,7.3257-38.4707,11.0423-52.13476,9.77393-35.93338,27.19739-74.65828,56.76148-97.63882,25.61188-19.90849,46.78724-17.99975,49.91432-19.20747,1.40122-.54083,3.68806-4.44793,7.50907-5.03054"/>
    <path class="uuid-1e9147e0-3c14-406a-ad10-46c4b18e0b54" d="M321.53307,118.51274c-16.94153-1.75802-46.91271,10.44586-61.17787,5.48761-16.0248-5.56945-21.30914-33.99051-46.38109-37.5006-49.92623-6.98712-80.67194,76.64707-86.79745,116.8463,25.0586-19.43654,54.82197-25.45796,85.25157-28.58231-2.53242,40.1304,63.2796,55.19389,64.93317,59.681.4962,1.34623-.37258,21.48719,0,26.06741l-84.14809,57.85149-85.47272-57.85149c-3.06558-9.08215,10.25596-69.20544,13.6933-81.86118,9.71346-35.76958,29.50106-79.65916,62.50342-98.096,13.67646-7.6402,33.24456-12.38235,48.14729-6.40281,2.03284-.42752-4.44421-7.75329-1.32463-7.31706,8.24992,3.03984,16.06761,6.52037,22.52772,12.80551,3.66372-21.9399,17.40661-7.82122,20.76079-6.85988,4.49462,1.28873,17.13742-.25171,30.03668,10.51804,10.93049,9.12652,15.9095,21.16586,17.44789,35.21397"/>
    <polygon class="uuid-1e9147e0-3c14-406a-ad10-46c4b18e0b54" points="298.78452 263.48443 298.34294 359.52276 86.98033 359.29375 87.20076 263.94161 193.21373 335.74198 298.78452 263.48443"/>
    <path class="uuid-b0ae9369-1215-4bcf-b32f-847ad39be31f" d="M333.67043,132.69255c16.41412,1.86612,25.57574,24.06475,27.3865,39.10119,4.66371,38.718-14.8935,71.02362-37.7669,99.46827,1.47268-5.25078,5.92695-10.18454,6.40466-15.77753,2.77554-32.47979-86.29027-31.72137-95.85311-78.88842,35.84433-3.24711,27.45139-11.2756,48.36854-27.43974,12.81436-9.90248,35.54659-18.27314,51.4603-16.46378"/>
    <polygon class="uuid-8b4b2b09-0539-4260-9d02-d69614e838cd" points="290.39178 240.61822 299.00505 245.87771 290.39178 250.67913 290.39178 240.61822"/>
    <path class="uuid-501a239c-542a-44a7-8c2c-4f872fc5b384" d="M321.53307,118.51274c.00749.07324.86118.87343.88305,1.14342.2616,3.24531.11694,7.95706-.44158,11.20417-15.91371-1.80862-38.64584,6.5613-51.4602,16.46367-20.91716,16.16413-12.52422,24.19273-48.36854,27.43974-.64168.05836-.3423-.9439-.6619-.9151-3.01014.27945-6.04553.60599-9.05567.9151-30.42959,3.12434-60.19297,9.14576-85.25157,28.58231,6.12551-40.19922,36.87122-123.83341,86.79745-116.8463,25.07194,3.51009,30.35629,31.93114,46.38109,37.5006,14.26517,4.95826,44.23634-7.24563,61.17787-5.48761"/>
    <path class="uuid-63a84239-28a5-428c-9238-0f8ba2d7b8e2" d="M230.31801,123.54328c24.86332-3.92017,27.23763,34.11519,5.30026,36.12843-23.76241,2.18129-24.58838-33.08679-5.30026-36.12843"/>
    <path class="uuid-e50f5f5e-1d0b-4912-8252-235fc38030e4" d="M231.20137,133.60446c9.27096-2.39717,10.76715,11.41156,3.97563,12.80477-9.41737,1.93309-10.16418-11.20428-3.97563-12.80477"/>
  </g>
</svg>